<svg width="17" height="18" viewBox="0 0 17 18" fill="none" xmlns="http://www.w3.org/2000/svg">
<path d="M8.28386 17.1637C3.74955 17.1637 0.060791 13.4749 0.060791 8.94063C0.060791 4.68636 3.25095 1.16866 7.48093 0.758022C7.75181 0.731042 8.00759 0.879975 8.11928 1.12711C8.23152 1.37425 8.17432 1.6651 7.97683 1.85073C6.94564 2.82148 6.37797 4.13111 6.37797 5.53894C6.37797 8.33519 8.65296 10.6102 11.4492 10.6102C12.9741 10.6102 14.4036 9.93242 15.3721 8.75176C15.5443 8.54186 15.8314 8.46577 16.0839 8.55966C16.338 8.65463 16.5032 8.9007 16.4956 9.17158C16.3715 13.653 12.7642 17.1637 8.28386 17.1637ZM5.95007 2.3844C3.22667 3.3422 1.32833 5.9226 1.32833 8.94063C1.32833 12.7762 4.44834 15.8962 8.28386 15.8962C11.4961 15.8962 14.1775 13.762 14.9836 10.8028C13.9508 11.4984 12.7265 11.8788 11.4492 11.8788C7.95363 11.8788 5.1099 9.0356 5.1099 5.53948C5.1099 4.41062 5.40128 3.33249 5.95007 2.3844Z" fill="white"/>
</svg>
